<svg width="298" height="48" viewBox="0 0 298 48" fill="none" xmlns="http://www.w3.org/2000/svg">
<path d="M0.780273 45.7477L27.9998 0L55.2193 45.7477H40.2925L27.9998 25.0408L15.7071 45.7477H0.780273Z" fill="#333E5C"/>
<path fill-rule="evenodd" clip-rule="evenodd" d="M27.9574 30.746L17.6554 48H23.3049L23.3524 47.9202V47.9999L38.2594 48L27.9574 30.746Z" fill="#76D1AA"/>
<path d="M91.0535 10.0752L86.4119 24H95.6951L91.0535 10.0752ZM102.107 33.4746C102.107 34.5273 101.581 35.0537 100.528 35.0537C99.7625 35.0537 99.26 34.6948 99.0208 33.9771L96.7478 27.1582H85.3592L83.0862 33.9771C82.847 34.6948 82.3445 35.0537 81.5789 35.0537C80.5262 35.0537 79.9998 34.5273 79.9998 33.4746C79.9998 33.2832 80.0237 33.1157 80.0716 32.9722L89.4744 4.73975C89.7615 3.89437 90.2879 3.47168 91.0535 3.47168C91.8191 3.47168 92.3375 3.87842 92.6087 4.69189L102.035 32.9722C102.083 33.1157 102.107 33.2832 102.107 33.4746Z" fill="white"/>
<path d="M108.424 14.5254C108.424 13.4727 108.95 12.9463 110.003 12.9463H117.898C119.669 12.9463 121.16 13.5604 122.372 14.7886C123.601 16.0008 124.215 17.4922 124.215 19.2627V28.7373C124.215 30.4919 123.601 31.9832 122.372 33.2114C121.16 34.4396 119.669 35.0537 117.898 35.0537H111.582V42.9492C111.582 44.002 111.055 44.5283 110.003 44.5283C108.95 44.5283 108.424 44.002 108.424 42.9492V14.5254ZM111.582 16.1045V31.8955H117.898C118.776 31.8955 119.517 31.5924 120.123 30.9863C120.745 30.3643 121.056 29.6146 121.056 28.7373V19.2627C121.056 18.3695 120.753 17.6198 120.147 17.0137C119.541 16.4076 118.791 16.1045 117.898 16.1045H111.582Z" fill="white"/>
<path d="M138.427 16.1045C137.119 16.1045 136.002 16.5671 135.077 17.4922C134.152 18.4173 133.689 19.5339 133.689 20.8418V22.4209H143.164V20.8418C143.164 19.5339 142.701 18.4173 141.776 17.4922C140.851 16.5671 139.734 16.1045 138.427 16.1045ZM133.689 25.5791V28.7373C133.689 29.5986 134 30.3403 134.622 30.9624C135.244 31.5845 135.986 31.8955 136.847 31.8955H144.743C145.796 31.8955 146.322 32.4219 146.322 33.4746C146.322 34.5273 145.796 35.0537 144.743 35.0537H136.847C135.077 35.0537 133.578 34.4476 132.349 33.2354C131.137 32.0072 130.531 30.5078 130.531 28.7373V20.8418C130.531 18.6566 131.297 16.7983 132.828 15.2671C134.375 13.7199 136.241 12.9463 138.427 12.9463C140.644 12.9463 142.51 13.7119 144.025 15.2432C145.556 16.7585 146.322 18.6247 146.322 20.8418V25.5791H133.689Z" fill="white"/>
<path d="M162.448 24L168.166 32.5894C168.342 32.8605 168.429 33.1556 168.429 33.4746C168.429 34.5273 167.903 35.0537 166.85 35.0537C166.276 35.0537 165.838 34.8224 165.534 34.3599L160.534 26.8472L155.533 34.3599C155.23 34.8224 154.792 35.0537 154.218 35.0537C153.787 35.0537 153.412 34.9022 153.093 34.5991C152.79 34.2801 152.638 33.9053 152.638 33.4746C152.638 33.1556 152.726 32.8605 152.902 32.5894L158.62 24L152.902 15.4106C152.726 15.1395 152.638 14.8444 152.638 14.5254C152.638 13.4727 153.165 12.9463 154.218 12.9463C154.792 12.9463 155.23 13.1776 155.533 13.6401L160.534 21.1289L165.534 13.6401C165.838 13.1776 166.276 12.9463 166.85 12.9463C167.903 12.9463 168.429 13.4647 168.429 14.5015C168.429 14.8364 168.342 15.1395 168.166 15.4106L162.448 24Z" fill="white"/>
<path d="M174.746 5.05078C174.746 3.99805 175.272 3.47168 176.325 3.47168H192.116C193.169 3.47168 193.695 3.99805 193.695 5.05078C193.695 6.10352 193.169 6.62988 192.116 6.62988H185.8V33.4746C185.8 34.5273 185.273 35.0537 184.22 35.0537C183.168 35.0537 182.641 34.5273 182.641 33.4746V6.62988H176.325C175.272 6.62988 174.746 6.10352 174.746 5.05078Z" fill="white"/>
<path d="M200.012 14.5254C200.012 13.4727 200.538 12.9463 201.591 12.9463H211.065C212.118 12.9463 212.644 13.4727 212.644 14.5254V17.6836C212.644 18.7363 212.118 19.2627 211.065 19.2627C210.012 19.2627 209.486 18.7363 209.486 17.6836V16.1045H203.17V33.4746C203.17 34.5273 202.643 35.0537 201.591 35.0537C200.538 35.0537 200.012 34.5273 200.012 33.4746V14.5254Z" fill="white"/>
<path d="M225.277 35.0537C223.507 35.0537 222.007 34.4476 220.779 33.2354C219.567 32.0072 218.961 30.5078 218.961 28.7373C218.961 27.5889 219.24 26.5282 219.798 25.5552C220.994 23.4657 222.821 22.4209 225.277 22.4209H231.594V19.2627C231.594 18.3695 231.29 17.6198 230.684 17.0137C230.078 16.4076 229.329 16.1045 228.435 16.1045H222.119C221.066 16.1045 220.54 15.5781 220.54 14.5254C220.54 13.4727 221.066 12.9463 222.119 12.9463H228.435C230.206 12.9463 231.697 13.5604 232.909 14.7886C234.138 16.0008 234.752 17.4922 234.752 19.2627V33.4746C234.752 34.5273 234.225 35.0537 233.173 35.0537H225.277ZM231.594 25.5791H225.277C224.4 25.5791 223.65 25.8901 223.028 26.5122C222.422 27.1183 222.119 27.86 222.119 28.7373C222.119 29.5986 222.43 30.3403 223.052 30.9624C223.674 31.5845 224.416 31.8955 225.277 31.8955H231.594V25.5791Z" fill="white"/>
<path d="M241.068 19.2627C241.068 18.1143 241.347 17.0535 241.906 16.0806C243.102 13.991 244.928 12.9463 247.385 12.9463H253.701V5.05078C253.701 3.99805 254.227 3.47168 255.28 3.47168C256.333 3.47168 256.859 3.99805 256.859 5.05078V33.4746C256.859 34.5273 256.333 35.0537 255.28 35.0537H247.385C245.614 35.0537 244.115 34.4476 242.887 33.2354C241.674 32.0072 241.068 30.5078 241.068 28.7373V19.2627ZM247.385 16.1045C246.507 16.1045 245.758 16.4155 245.136 17.0376C244.529 17.6437 244.226 18.3854 244.226 19.2627V28.7373C244.226 29.5986 244.537 30.3403 245.159 30.9624C245.782 31.5845 246.523 31.8955 247.385 31.8955H253.701V16.1045H247.385Z" fill="white"/>
<path d="M271.071 16.1045C269.763 16.1045 268.647 16.5671 267.721 17.4922C266.796 18.4173 266.334 19.5339 266.334 20.8418V22.4209H275.808V20.8418C275.808 19.5339 275.346 18.4173 274.421 17.4922C273.496 16.5671 272.379 16.1045 271.071 16.1045ZM266.334 25.5791V28.7373C266.334 29.5986 266.645 30.3403 267.267 30.9624C267.889 31.5845 268.631 31.8955 269.492 31.8955H277.387C278.44 31.8955 278.967 32.4219 278.967 33.4746C278.967 34.5273 278.44 35.0537 277.387 35.0537H269.492C267.721 35.0537 266.222 34.4476 264.994 33.2354C263.782 32.0072 263.176 30.5078 263.176 28.7373V20.8418C263.176 18.6566 263.941 16.7983 265.472 15.2671C267.02 13.7199 268.886 12.9463 271.071 12.9463C273.288 12.9463 275.154 13.7119 276.67 15.2432C278.201 16.7585 278.967 18.6247 278.967 20.8418V25.5791H266.334Z" fill="white"/>
<path d="M285.283 14.5254C285.283 13.4727 285.809 12.9463 286.862 12.9463H296.337C297.389 12.9463 297.916 13.4727 297.916 14.5254V17.6836C297.916 18.7363 297.389 19.2627 296.337 19.2627C295.284 19.2627 294.758 18.7363 294.758 17.6836V16.1045H288.441V33.4746C288.441 34.5273 287.915 35.0537 286.862 35.0537C285.809 35.0537 285.283 34.5273 285.283 33.4746V14.5254Z" fill="white"/>
</svg>
