<svg width="435" height="144" viewBox="0 0 435 144" fill="none" xmlns="http://www.w3.org/2000/svg">
<path d="M0 136.939L81.2507 0.335698L162.501 136.939H117.945L81.2507 75.108L44.5568 136.939H0Z" fill="#21283B"/>
<path fill-rule="evenodd" clip-rule="evenodd" d="M81.1242 92.1436L50.3725 143.664H67.2364L67.3783 143.426V143.664L111.876 143.664L81.1242 92.1436Z" fill="#76D1AA"/>
<path d="M228.006 12.1705L219.455 37.8344H236.558L228.006 12.1705ZM248.372 55.2964C248.372 57.2367 247.402 58.2068 245.463 58.2068C244.052 58.2068 243.126 57.5453 242.685 56.2224L238.498 43.6551H217.515L213.327 56.2224C212.886 57.5453 211.961 58.2068 210.55 58.2068C208.611 58.2068 207.641 57.2367 207.641 55.2964C207.641 54.9437 207.685 54.635 207.773 54.3704L225.097 2.33709C225.626 0.77903 226.596 0 228.006 0C229.417 0 230.372 0.749633 230.872 2.2489L248.24 54.3704C248.328 54.635 248.372 54.9437 248.372 55.2964Z" fill="white"/>
<path d="M260.009 20.3724C260.009 18.4321 260.979 17.462 262.919 17.462H277.466C280.728 17.462 283.475 18.5938 285.709 20.8574C287.972 23.0916 289.103 25.8403 289.103 29.1034V46.5654C289.103 49.7991 287.972 52.5478 285.709 54.8114C283.475 57.075 280.728 58.2068 277.466 58.2068H265.828V72.7585C265.828 74.6987 264.858 75.6688 262.919 75.6688C260.979 75.6688 260.009 74.6987 260.009 72.7585V20.3724ZM265.828 23.2827V52.3861H277.466C279.082 52.3861 280.448 51.8275 281.565 50.7104C282.711 49.5639 283.284 48.1823 283.284 46.5654V29.1034C283.284 27.4571 282.726 26.0755 281.609 24.9584C280.492 23.8413 279.111 23.2827 277.466 23.2827H265.828Z" fill="white"/>
<path d="M315.287 23.2827C312.878 23.2827 310.82 24.1352 309.116 25.8403C307.411 27.5453 306.559 29.6031 306.559 32.0137V34.9241H324.015V32.0137C324.015 29.6031 323.163 27.5453 321.459 25.8403C319.754 24.1352 317.697 23.2827 315.287 23.2827ZM306.559 40.7447V46.5654C306.559 48.1529 307.132 49.5198 308.278 50.6663C309.425 51.8128 310.791 52.3861 312.378 52.3861H326.925C328.864 52.3861 329.834 53.3562 329.834 55.2964C329.834 57.2367 328.864 58.2068 326.925 58.2068H312.378C309.116 58.2068 306.354 57.0897 304.091 54.8555C301.857 52.5919 300.741 49.8285 300.741 46.5654V32.0137C300.741 27.9863 302.151 24.5615 304.972 21.7393C307.823 18.8878 311.261 17.462 315.287 17.462C319.372 17.462 322.811 18.8731 325.602 21.6952C328.424 24.488 329.834 27.9275 329.834 32.0137V40.7447H306.559Z" fill="white"/>
<path d="M359.545 37.8344L370.08 53.6649C370.404 54.1646 370.565 54.7085 370.565 55.2964C370.565 57.2367 369.596 58.2068 367.656 58.2068C366.598 58.2068 365.79 57.7805 365.232 56.928L356.019 43.0818L346.806 56.928C346.247 57.7805 345.439 58.2068 344.381 58.2068C343.588 58.2068 342.897 57.9275 342.309 57.3689C341.751 56.781 341.472 56.0902 341.472 55.2964C341.472 54.7085 341.633 54.1646 341.957 53.6649L352.492 37.8344L341.957 22.0039C341.633 21.5042 341.472 20.9603 341.472 20.3724C341.472 18.4321 342.441 17.462 344.381 17.462C345.439 17.462 346.247 17.8883 346.806 18.7408L356.019 32.5429L365.232 18.7408C365.79 17.8883 366.598 17.462 367.656 17.462C369.596 17.462 370.565 18.4174 370.565 20.3283C370.565 20.9456 370.404 21.5042 370.08 22.0039L359.545 37.8344Z" fill="white"/>
<path d="M207.641 88.7036C207.641 86.7634 208.611 85.7932 210.55 85.7932H239.644C241.583 85.7932 242.553 86.7634 242.553 88.7036C242.553 90.6438 241.583 91.6139 239.644 91.6139H228.006V141.09C228.006 143.03 227.037 144 225.097 144C223.157 144 222.188 143.03 222.188 141.09V91.6139H210.55C208.611 91.6139 207.641 90.6438 207.641 88.7036Z" fill="white"/>
<path d="M254.191 106.166C254.191 104.225 255.16 103.255 257.1 103.255H274.556C276.496 103.255 277.466 104.225 277.466 106.166V111.986C277.466 113.927 276.496 114.897 274.556 114.897C272.617 114.897 271.647 113.927 271.647 111.986V109.076H260.009V141.09C260.009 143.03 259.04 144 257.1 144C255.16 144 254.191 143.03 254.191 141.09V106.166Z" fill="white"/>
<path d="M300.741 144C297.478 144 294.716 142.883 292.453 140.649C290.22 138.385 289.103 135.622 289.103 132.359C289.103 130.242 289.617 128.287 290.646 126.494C292.85 122.643 296.215 120.717 300.741 120.717H312.378V114.897C312.378 113.25 311.82 111.869 310.703 110.752C309.586 109.634 308.205 109.076 306.559 109.076H294.922C292.982 109.076 292.012 108.106 292.012 106.166C292.012 104.225 292.982 103.255 294.922 103.255H306.559C309.821 103.255 312.569 104.387 314.802 106.651C317.065 108.885 318.197 111.634 318.197 114.897V141.09C318.197 143.03 317.227 144 315.287 144H300.741ZM312.378 126.538H300.741C299.124 126.538 297.743 127.111 296.597 128.258C295.48 129.375 294.922 130.742 294.922 132.359C294.922 133.946 295.495 135.313 296.641 136.46C297.787 137.606 299.154 138.179 300.741 138.179H312.378V126.538Z" fill="white"/>
<path d="M329.834 114.897C329.834 112.78 330.348 110.825 331.377 109.032C333.581 105.181 336.946 103.255 341.472 103.255H353.109V88.7036C353.109 86.7634 354.079 85.7932 356.019 85.7932C357.958 85.7932 358.928 86.7634 358.928 88.7036V141.09C358.928 143.03 357.958 144 356.019 144H341.472C338.21 144 335.447 142.883 333.184 140.649C330.951 138.385 329.834 135.622 329.834 132.359V114.897ZM341.472 109.076C339.855 109.076 338.474 109.649 337.328 110.796C336.211 111.913 335.653 113.28 335.653 114.897V132.359C335.653 133.946 336.226 135.313 337.372 136.46C338.518 137.606 339.885 138.179 341.472 138.179H353.109V109.076H341.472Z" fill="white"/>
<path d="M385.112 109.076C382.702 109.076 380.645 109.928 378.941 111.634C377.236 113.339 376.384 115.396 376.384 117.807V120.717H393.84V117.807C393.84 115.396 392.988 113.339 391.284 111.634C389.579 109.928 387.522 109.076 385.112 109.076ZM376.384 126.538V132.359C376.384 133.946 376.957 135.313 378.103 136.46C379.249 137.606 380.616 138.179 382.203 138.179H396.75C398.689 138.179 399.659 139.149 399.659 141.09C399.659 143.03 398.689 144 396.75 144H382.203C378.941 144 376.178 142.883 373.916 140.649C371.682 138.385 370.565 135.622 370.565 132.359V117.807C370.565 113.78 371.976 110.355 374.797 107.533C377.648 104.681 381.086 103.255 385.112 103.255C389.197 103.255 392.635 104.666 395.427 107.488C398.248 110.281 399.659 113.721 399.659 117.807V126.538H376.384Z" fill="white"/>
<path d="M411.297 106.166C411.297 104.225 412.266 103.255 414.206 103.255H431.662C433.602 103.255 434.571 104.225 434.571 106.166V111.986C434.571 113.927 433.602 114.897 431.662 114.897C429.723 114.897 428.753 113.927 428.753 111.986V109.076H417.115V141.09C417.115 143.03 416.145 144 414.206 144C412.266 144 411.297 143.03 411.297 141.09V106.166Z" fill="white"/>
</svg>
